<!--?xml version="1.0" encoding="utf-8"?-->
<!-- Generator: Adobe Illustrator 18.1.1, SVG Export Plug-In . SVG Version: 6.00 Build 0)  -->

<svg version="1.1" id="_x32_" xmlns="http://www.w3.org/2000/svg" xmlns:xlink="http://www.w3.org/1999/xlink" x="0px" y="0px" viewBox="0 0 512 512" style="width: 256px; height: 256px; opacity: 1;" xml:space="preserve">
<style type="text/css">
	.st0{fill:#4B4B4B;}
</style>
<g>
	<path class="st0" d="M257.248,147.197c17.207,0,31.166-13.951,31.166-31.166c0-17.221-13.958-31.172-31.166-31.172
		c-17.222,0-31.179,13.951-31.179,31.172C226.068,133.246,240.026,147.197,257.248,147.197z" style="fill: rgb(239, 55, 155);"></path>
	<path class="st0" d="M127.281,139.528c17.262,2.876,91.111-2.876,91.111-2.876s-18.221-23.98,2.883-48.917
		c0,0-26.788-23.491-50.835-42.201c-8.634-6.717-20.79-2.236-26.855,4.794c-15.236,17.663-31.234,58.498-32.607,63.304
		C109.053,120.348,110.012,136.652,127.281,139.528z" style="fill: rgb(239, 55, 155);"></path>
	<path class="st0" d="M293.458,136.652c0,0,73.85,5.752,91.118,2.876c17.262-2.876,18.221-19.18,16.304-25.897
		c-1.38-4.806-17.371-45.641-32.608-63.304c-6.064-7.03-18.227-11.51-26.862-4.794c-24.048,18.71-50.828,42.201-50.828,42.201
		C311.686,112.673,293.458,136.652,293.458,136.652z" style="fill: rgb(239, 55, 155);"></path>
	<path class="st0" d="M505.562,284.589c-8.982-13.068-18.595-21.404-27.97-26.876c-9.383-5.521-18.302-8.111-25.897-10.354
		c-7.254-2.135-13.7-4.086-21.124-8.118c-7.363-4.086-15.767-10.3-26.298-21.403c-17.84-18.88-35.912-33.383-54.037-43.282
		c-18.126-9.899-36.374-15.134-54.261-15.134h-1.503c-15.42,0.802-28.371,5.813-38.494,11.395
		c-10.076-5.582-23.082-10.593-38.448-11.395h-1.496c-17.894,0-36.197,5.235-54.261,15.134
		c-18.132,9.899-36.204,24.401-54.044,43.282C97.203,228.94,88.8,235.154,81.376,239.24c-7.37,4.032-13.816,5.983-21.063,8.118
		c-7.601,2.244-16.576,4.834-25.898,10.354c-9.382,5.473-18.989,13.808-27.97,26.876C3.284,289.075,0,296.207,0,305.304
		c0,2.706,0.286,5.521,0.863,8.465c1.264,6.092,4.263,14.325,11.857,24.741c7.594,10.416,19.676,23.306,39.651,39.936
		c2.244,1.897,11.796,9.607,22.899,18.132c5.582,4.256,11.51,8.688,17.092,12.66c5.412,3.794,10.477,7.193,14.733,9.722
		c4.202,2.822,9.668,5.929,15.773,9.213c18.126,9.838,41.262,20.539,45.226,22.327c33.898,15.018,53.867,19.22,67.506,19.275
		c5.473,0,9.899-0.748,13.292-1.673c2.59-0.625,4.949-1.496,7.139-2.529c2.128,1.033,4.487,1.904,7.078,2.529
		c3.399,0.924,7.825,1.673,13.291,1.673c13.645-0.054,33.607-4.256,67.444-19.275c2.706-1.21,13.815-6.336,26.414-12.544
		c6.221-3.107,12.836-6.514,18.88-9.784c6.106-3.284,11.565-6.391,15.767-9.213v-0.054c4.317-2.474,9.328-5.874,14.679-9.668
		c16.799-11.973,36.714-27.97,40.052-30.792c19.968-16.63,32.057-29.52,39.644-39.936c7.601-10.416,10.592-18.649,11.857-24.741
		c0.579-2.944,0.864-5.759,0.864-8.465C512,296.207,508.723,289.075,505.562,284.589z M493.242,297.764
		c-3.624-0.632-7.656-0.918-12.081-0.918c-15.542,0-36.258,3.515-58.763,10.64c-2.698,0.87-5.466,1.788-8.226,2.767h-0.02
		c-0.007,0,0,0-0.041,0c-0.007,0,0,0-0.013,0c-15.312,5.35-31.078,12.374-46.443,21.24v0.014c-4.834,2.814-9.655,5.745-14.366,8.899
		c0,0.062-0.062,0.062-0.062,0.062c-26.875,17.262-50.522,38.733-67.73,58.694c-4.202,4.895-7.941,9.668-11.334,14.271
		c-0.925,1.271-1.85,2.59-2.713,3.855c-2.414,3.461-4.548,6.854-6.384,10.137c-2.414,4.317-4.378,8.396-5.752,12.197
		c-0.809,2.244-1.387,4.372-1.734,6.438c-5.46-6.323-8.858-12.366-10.871-18.064c-1.958-5.582-2.706-10.94-2.822-16.114v-0.918
		c0-0.802,0-1.672,0.061-2.475c0.054-1.04,0.109-2.134,0.231-3.168c0.571-1.496,1.319-3.101,2.183-4.773
		c5.296-10.416,14.903-23.939,27.508-37.754c15.882-17.439,36.544-35.68,59.272-50.414l0.062-0.054h0.054
		c21.294-14.447,44.778-25.094,66.588-31.941c21.749-7.023,41.833-10.239,55.934-10.239c3.739,0,7.016,0.231,9.783,0.687
		c1.088,0.517,2.244,1.149,3.338,1.781c0.687,0.408,1.435,0.864,2.128,1.388c6.561,4.14,13.292,10.3,20.37,20.423
		C492.032,295.351,492.664,296.5,493.242,297.764z M261.034,187.909c8.866-5.466,20.431-10.477,34.13-11.225h0.809
		c14.495,0,29.86,4.202,45.974,13.007c16.113,8.804,32.92,22.157,49.781,39.997c11.456,12.082,21.403,19.683,30.554,24.687
		c3.916,2.135,7.656,3.8,11.171,5.12c-11.402,1.788-24,4.725-37.237,8.927c-22.674,7.193-47.129,18.126-69.518,33.375l-0.062-0.061
		c-27.216,17.724-51.1,39.767-68.478,60.312c-3.393,3.97-6.5,7.887-9.376,11.742c0.232-2.42,0.34-4.896,0.34-7.601
		c0-11.219-2.182-24.626-8.744-42.296c-9.443-25.38-14.046-48.224-14.046-67.846c0-16.29,3.107-30.268,9.036-42.009
		c5.582-10.069,13.183-17.439,20.662-22.79c0.177-0.116,0.34-0.231,0.462-0.292c0.109-0.054,0.17-0.17,0.286-0.224
		c1.326-0.986,2.706-1.896,4.032-2.712L261.034,187.909z M65.201,263.933c7.193-2.135,15.365-4.549,24.517-9.559
		c9.151-5.004,19.104-12.605,30.56-24.687c16.862-17.84,33.662-31.193,49.775-39.997c16.12-8.804,31.478-13.007,45.98-13.007h0.864
		c8.519,0.462,16.167,2.591,22.905,5.412c-7.078,5.983-13.985,13.7-19.506,23.537l-0.122,0.116l-0.054,0.17
		c-7.424,14.618-11.049,31.533-11.049,50.127c0,22.274,5.12,47.014,15.135,73.89c5.983,16.175,7.601,27.277,7.601,36.252
		c0,6.962-0.98,12.836-2.074,19.281c-0.462,2.937-1.21,6.384-1.781,10.362c-42.133-12.028-77.12-29.983-105.206-50.067
		c-34.756-24.87-58.925-53.004-72.625-76.657C55.077,266.918,60.026,265.422,65.201,263.933z M235.6,452.506
		c-9.838,0-27.794-3.27-60.476-17.779c-2.251-1.033-13.414-6.16-25.672-12.259c-6.16-3.046-12.605-6.323-18.412-9.49
		c-5.758-3.114-10.939-6.099-14.277-8.343l-0.572-0.347c-3.454-2.012-8.464-5.296-13.814-9.096
		c-16.059-11.45-36.021-27.563-38.958-29.983c-19.22-16.052-30.384-28.079-36.775-36.89c-6.384-8.859-7.995-14.155-8.865-18.064
		c-0.395-1.782-0.517-3.447-0.517-4.95c0-5.01,1.672-8.457,3.338-10.878c6.737-9.606,13.121-15.651,19.397-19.798
		c14.672,25.38,39.943,54.615,76.072,80.457c29.588,21.117,66.411,39.998,110.672,52.426c-0.122,1.088-0.122,2.298-0.122,3.454
		c0,7.016,0.979,14.787,3.855,22.844c2.134,6.037,5.357,12.251,9.905,18.411C239,452.397,237.442,452.506,235.6,452.506z
		 M494.221,310.254c-0.864,3.909-2.529,9.205-8.92,18.064c-6.33,8.811-17.494,20.839-36.775,36.89
		c-1.897,1.618-11.45,9.328-22.328,17.67c-5.412,4.14-11.218,8.458-16.568,12.313c-5.358,3.8-10.368,7.084-13.87,9.096l-0.231,0.17
		l-0.286,0.177c-3.338,2.244-8.526,5.228-14.278,8.343c-17.378,9.382-40.684,20.199-44.138,21.749
		c-32.628,14.509-50.583,17.779-60.428,17.779c-3.277-0.054-5.697-0.34-7.649-0.741v-0.061c-0.061-0.286-0.115-0.687-0.115-1.15
		c0-1.55,0.455-4.032,1.496-7.078c3.739-10.592,14.848-27.045,30.554-44.022c15.774-17.092,36.252-34.871,58.81-49.38l0.122-0.054
		c2.407-1.611,4.875-3.216,7.343-4.705c2.481,15.875,16.174,27.956,32.689,27.956c18.357,0,33.205-14.848,33.205-33.212
		c0-8.104-2.876-15.528-7.825-21.28c0.007,0,0.013-0.007,0.02-0.007c0.285-0.116,0.516-0.231,0.802-0.292
		c21.58-6.901,41.432-10.124,55.309-10.124c5.466,0,10.015,0.517,13.061,1.381h0.06
		C494.282,309.907,494.282,310.084,494.221,310.254z" style="fill: rgb(239, 55, 155);"></path>
</g>
</svg>
