<?xml version="1.0" encoding="UTF-8" standalone="no"?>
<!-- Created with Inkscape (http://www.inkscape.org/) -->

<svg
   width="81.299797mm"
   height="81.423546mm"
   viewBox="0 0 81.299796 81.423545"
   version="1.1"
   id="svg5"
   xml:space="preserve"
   inkscape:version="1.2.2 (732a01da63, 2022-12-09)"
   sodipodi:docname="279map_logo.svg"
   xmlns:inkscape="http://www.inkscape.org/namespaces/inkscape"
   xmlns:sodipodi="http://sodipodi.sourceforge.net/DTD/sodipodi-0.dtd"
   xmlns="http://www.w3.org/2000/svg"
   xmlns:svg="http://www.w3.org/2000/svg"><sodipodi:namedview
     id="namedview7"
     pagecolor="#ffffff"
     bordercolor="#000000"
     borderopacity="0.25"
     inkscape:showpageshadow="2"
     inkscape:pageopacity="0.0"
     inkscape:pagecheckerboard="0"
     inkscape:deskcolor="#d1d1d1"
     inkscape:document-units="mm"
     showgrid="false"
     inkscape:zoom="0.73851712"
     inkscape:cx="-64.318076"
     inkscape:cy="197.69345"
     inkscape:window-width="1920"
     inkscape:window-height="1009"
     inkscape:window-x="108"
     inkscape:window-y="-8"
     inkscape:window-maximized="1"
     inkscape:current-layer="svg5" /><defs
     id="defs2"><clipPath
       clipPathUnits="userSpaceOnUse"
       id="clipPath198"><path
         d="M 0,841.89 H 595.276 V 0 H 0 Z"
         id="path196" /></clipPath><clipPath
       clipPathUnits="userSpaceOnUse"
       id="clipPath302"><path
         d="M 0,841.89 H 595.276 V 0 H 0 Z"
         id="path300" /></clipPath></defs><g
     inkscape:label="Layer 1"
     inkscape:groupmode="layer"
     id="layer1"
     transform="translate(-278.15245,-96.215417)" /><g
     id="g192"
     transform="matrix(0.35277776,0,0,-0.35277778,-58.152442,200.78467)"><g
       id="g194"
       clip-path="url(#clipPath198)"><g
         id="g200"
         transform="translate(293.8225,440.4919)"><path
           d="m 0,0 c -13.079,4.486 -27.011,6.618 -41.141,6.122 6.723,23.371 17.981,45.29 33.151,64.39 C 2.995,71.74 13.914,70.349 23.977,66.696 11.841,46.285 3.657,23.628 0,0"
           style="fill:#d6d3cc;fill-opacity:1;fill-rule:nonzero;stroke:none"
           id="path202" /></g><g
         id="g204"
         transform="translate(286.6187,509.5801)"><path
           d="m 0,0 c -14.474,-18.349 -25.206,-38.998 -31.919,-61.413 12.904,0.226 25.642,-1.686 37.92,-5.691 3.714,22.599 11.431,44.076 22.961,63.897 C 19.671,-0.11 9.711,0.995 0,0 m 6.717,-70.507 c -13.105,4.495 -26.765,6.528 -40.602,6.042 l -2.065,-0.073 0.571,1.987 c 6.834,23.755 18.078,45.594 33.419,64.908 l 0.388,0.488 0.62,0.07 C 10.007,4.14 21.296,2.793 31.692,-0.982 L 33.396,-1.601 32.47,-3.158 C 20.32,-23.594 12.317,-45.853 8.686,-69.318 l -0.274,-1.77 z"
           style="fill:#ffffff;fill-opacity:1;fill-rule:nonzero;stroke:none"
           id="path206" /></g><g
         id="g208"
         transform="translate(252.6812,446.614)"><path
           d="m 0,0 c -9.943,-0.349 -19.983,-1.986 -29.892,-5.061 0.401,28.576 18.175,55.257 46.625,65.612 5.422,1.973 10.928,3.225 16.419,3.839 C 17.981,45.29 6.724,23.371 0,0"
           style="fill:#91cca4;fill-opacity:1;fill-rule:nonzero;stroke:none"
           id="path210" /></g><g
         id="g212"
         transform="translate(269.927,505.7553)"><path
           d="m 0,0 c -26.251,-9.555 -44.352,-34.369 -45.579,-62.168 8.836,2.567 17.967,4.072 27.194,4.482 6.512,22.165 16.878,42.645 30.84,60.944 C 8.201,2.557 4.026,1.465 0,0 m -17.193,-60.641 c -10.03,-0.352 -19.956,-2.032 -29.501,-4.994 l -1.973,-0.613 0.029,2.066 c 0.419,29.863 19.553,56.789 47.612,67.001 C 4.359,4.779 9.999,6.098 15.74,6.74 L 19.324,7.14 17.08,4.316 C 1.985,-14.69 -9.08,-36.179 -15.804,-59.556 l -0.301,-1.046 z"
           style="fill:#ffffff;fill-opacity:1;fill-rule:nonzero;stroke:none"
           id="path214" /></g><g
         id="g216"
         transform="translate(293.8225,440.4919)"><path
           d="m 0,0 c -1.197,-7.731 -1.902,-15.567 -2.107,-23.462 -12.728,8.468 -27.064,14.353 -42.136,17.237 0.893,4.156 1.93,8.273 3.102,12.347 C -27.011,6.618 -13.079,4.486 0,0"
           style="fill:#d6d3cc;fill-opacity:1;fill-rule:nonzero;stroke:none"
           id="path218" /></g><g
         id="g220"
         transform="translate(253.8236,445.1477)"><path
           d="m 0,0 c -0.906,-3.221 -1.728,-6.476 -2.451,-9.707 13.874,-2.842 26.95,-8.117 38.931,-15.705 0.268,6.607 0.886,13.229 1.848,19.737 C 25.93,-1.573 13.048,0.335 0,0 m 37.061,-29.366 c -12.68,8.434 -26.671,14.158 -41.587,17.012 l -1.507,0.289 0.322,1.499 c 0.889,4.135 1.941,8.323 3.127,12.447 l 0.301,1.046 1.087,0.038 c 14.206,0.5 28.229,-1.587 41.681,-6.202 l 1.188,-0.407 -0.192,-1.241 c -1.184,-7.656 -1.888,-15.486 -2.09,-23.272 l -0.07,-2.713 z"
           style="fill:#ffffff;fill-opacity:1;fill-rule:nonzero;stroke:none"
           id="path222" /></g><g
         id="g224"
         transform="translate(249.5794,434.2672)"><path
           d="m 0,0 c -8.701,1.665 -17.643,2.341 -26.659,1.928 -0.112,1.791 -0.157,3.578 -0.132,5.357 9.91,3.076 19.949,4.713 29.893,5.062 C 1.93,8.273 0.893,4.155 0,0"
           style="fill:#d6d3cc;fill-opacity:1;fill-rule:nonzero;stroke:none"
           id="path226" /></g><g
         id="g228"
         transform="translate(224.2821,440.4397)"><path
           d="m 0,0 c 0.002,-0.888 0.022,-1.786 0.059,-2.687 8.027,0.262 16.114,-0.325 24.083,-1.747 0.671,3.001 1.424,6.021 2.251,9.018 C 17.431,4.106 8.567,2.567 0,0 M 25.015,-7.646 C 16.32,-5.982 7.469,-5.341 -1.294,-5.743 l -1.474,-0.067 -0.091,1.473 c -0.115,1.84 -0.16,3.681 -0.134,5.471 l 0.016,1.089 1.039,0.322 C 7.861,5.587 18.051,7.312 28.346,7.673 L 30.411,7.746 29.84,5.759 C 28.674,1.702 27.638,-2.419 26.764,-6.488 l -0.309,-1.434 z"
           style="fill:#ffffff;fill-opacity:1;fill-rule:nonzero;stroke:none"
           id="path230" /></g><g
         id="g232"
         transform="translate(327.7479,378.4441)"><path
           d="M 0,0 C -3.122,-1.71 -6.41,-3.209 -9.859,-4.464 -16.882,-7.02 -24.046,-8.388 -31.136,-8.687 -34.868,7.074 -36.437,22.946 -36.032,38.586 -21.468,28.898 -9.01,15.839 0,0"
           style="fill:#91cca4;fill-opacity:1;fill-rule:nonzero;stroke:none"
           id="path234" /></g><g
         id="g236"
         transform="translate(293.1642,414.2239)"><path
           d="m 0,0 c -0.155,-14.438 1.398,-28.852 4.624,-42.904 9.669,0.58 19.199,3.208 27.885,7.717 C 24.381,-21.357 13.203,-9.262 0,0 m 3.511,-45.965 -1.238,-0.052 -0.286,1.205 c -3.689,15.585 -5.349,31.619 -4.935,47.657 l 0.07,2.714 2.26,-1.503 c 15.016,-9.99 27.639,-23.508 36.505,-39.094 l 0.755,-1.325 -1.337,-0.732 c -3.231,-1.769 -6.617,-3.303 -10.067,-4.559 -7.004,-2.549 -14.313,-4 -21.727,-4.311"
           style="fill:#ffffff;fill-opacity:1;fill-rule:nonzero;stroke:none"
           id="path238" /></g><g
         id="g240"
         transform="translate(293.8225,440.4919)"><path
           d="M 0,0 C 22.503,-7.719 42.478,-22.355 56.573,-42.356 50.64,-50.306 42.995,-57.08 33.925,-62.048 24.916,-46.209 12.457,-33.15 -2.107,-23.462 -1.902,-15.567 -1.197,-7.731 0,0"
           style="fill:#d6d3cc;fill-opacity:1;fill-rule:nonzero;stroke:none"
           id="path242" /></g><g
         id="g244"
         transform="translate(295.0377,438.4746)"><path
           d="m 0,0 c -0.985,-6.814 -1.589,-13.751 -1.799,-20.659 14.297,-9.663 26.384,-22.534 35.067,-37.338 7.871,4.527 14.666,10.467 20.229,17.686 C 40.119,-21.707 21.672,-7.81 0,0 m 31.407,-60.772 c -8.637,15.18 -20.933,28.348 -35.56,38.079 l -0.69,0.459 0.022,0.829 c 0.204,7.912 0.919,15.87 2.123,23.652 l 0.274,1.771 1.695,-0.582 c 23.358,-8.012 43.176,-22.851 57.313,-42.911 l 0.627,-0.889 -0.652,-0.872 c -6.234,-8.352 -14.015,-15.118 -23.128,-20.11 l -1.294,-0.709 z"
           style="fill:#ffffff;fill-opacity:1;fill-rule:nonzero;stroke:none"
           id="path246" /></g><g
         id="g248"
         transform="translate(293.8225,440.4919)"><path
           d="M 0,0 C 3.657,23.628 11.841,46.285 23.977,66.696 43.004,59.787 58.957,44.828 66.421,24.318 74.906,1.006 70.381,-23.858 56.573,-42.356 42.478,-22.355 22.503,-7.719 0,0"
           style="fill:#91cca4;fill-opacity:1;fill-rule:nonzero;stroke:none"
           id="path250" /></g><g
         id="g252"
         transform="translate(295.4992,441.4953)"><path
           d="M 0,0 C 22.18,-7.869 41.101,-21.931 54.901,-40.795 67.953,-22.204 71.121,1.412 63.335,22.802 56.442,41.742 41.764,56.64 22.953,63.848 11.37,44.068 3.652,22.6 0,0 M 53.671,-44.224 C 39.9,-24.683 20.593,-10.228 -2.163,-2.422 l -1.188,0.407 0.192,1.241 c 3.691,23.846 11.822,46.466 24.17,67.233 l 0.634,1.068 1.167,-0.424 C 43.017,59.767 58.815,43.994 66.154,23.828 74.521,0.84 70.763,-24.612 56.098,-44.257 l -1.236,-1.657 z"
           style="fill:#ffffff;fill-opacity:1;fill-rule:nonzero;stroke:none"
           id="path254" /></g><g
         id="g256"
         transform="translate(222.9203,436.1954)"><path
           d="M 0,0 C 9.017,0.413 17.958,-0.263 26.659,-1.928 23.461,-16.815 22.072,-32.176 22.657,-47.682 14.603,-40.257 8.144,-30.864 4.139,-19.861 1.753,-13.305 0.413,-6.626 0,0"
           style="fill:#91cca4;fill-opacity:1;fill-rule:nonzero;stroke:none"
           id="path258" /></g><g
         id="g260"
         transform="translate(224.5298,434.7569)"><path
           d="m 0,0 c 0.517,-6.126 1.84,-12.143 3.939,-17.909 3.405,-9.357 8.615,-17.647 15.507,-24.69 -0.241,13.698 1.04,27.438 3.819,40.913 C 15.564,-0.319 7.753,0.247 0,0 m 20.03,-47.346 c -8.558,7.891 -14.92,17.449 -18.91,28.411 -2.372,6.516 -3.794,13.339 -4.226,20.28 l -0.096,1.522 1.524,0.07 C 7.318,3.349 16.407,2.692 25.331,0.983 l 1.507,-0.288 -0.322,-1.5 C 23.31,-15.732 21.974,-31 22.546,-46.187 l 0.136,-3.603 z"
           style="fill:#ffffff;fill-opacity:1;fill-rule:nonzero;stroke:none"
           id="path262" /></g><g
         id="g264"
         transform="translate(291.716,417.0303)"><path
           d="m 0,0 c -0.405,-15.64 1.164,-31.512 4.896,-47.273 -18.929,-0.796 -37.309,6.103 -51.034,18.756 -0.585,15.506 0.803,30.867 4.001,45.754 C -27.065,14.353 -12.728,8.467 0,0"
           style="fill:#d6d3cc;fill-opacity:1;fill-rule:nonzero;stroke:none"
           id="path266" /></g><g
         id="g268"
         transform="translate(250.7412,432.5074)"><path
           d="M 0,0 C -2.943,-14.261 -4.183,-28.82 -3.688,-43.311 9.305,-55.07 26.557,-61.566 43.996,-61.303 40.658,-46.552 39.132,-31.417 39.455,-16.271 27.369,-8.355 14.107,-2.885 0,0 M 45.934,-64.248 C 26.885,-65.049 7.89,-58.069 -6.181,-45.096 l -0.459,0.422 -0.023,0.624 c -0.582,15.435 0.775,30.954 4.034,46.125 L -2.32,3.508 -0.88,3.233 C 14.429,0.304 28.791,-5.571 41.805,-14.228 l 0.69,-0.459 -0.022,-0.828 c -0.407,-15.78 1.226,-31.555 4.858,-46.889 l 0.418,-1.769 z"
           style="fill:#ffffff;fill-opacity:1;fill-rule:nonzero;stroke:none"
           id="path270" /></g></g></g><g
     id="g272"
     transform="matrix(0.35277776,0,0,-0.35277778,55.112533,31.120433)"><path
       d="M 0,0 16.963,44.724"
       style="fill:none;stroke:#595757;stroke-width:6.6;stroke-linecap:round;stroke-linejoin:round;stroke-miterlimit:10;stroke-dasharray:none;stroke-opacity:1"
       id="path274" /></g><g
     id="g276"
     transform="matrix(0.35277776,0,0,-0.35277778,55.184813,10.708433)"><path
       d="m 0,0 -3.188,-8.755 7.857,-15.376 24.743,-1.622 6.371,8.339 -6.829,13.655 z"
       style="fill:#fbd28b;fill-opacity:1;fill-rule:nonzero;stroke:none"
       id="path278" /></g><g
     id="g280"
     transform="matrix(0.35277776,0,0,-0.35277778,58.948953,6.5022629)"><path
       d="m 0,0 -12.453,-7.067 10.337,-22.232 31.008,-1.42 1.234,26.776 z"
       style="fill:#c22f60;fill-opacity:1;fill-rule:nonzero;stroke:none"
       id="path282" /></g><g
     id="g284"
     transform="matrix(0.35277776,0,0,-0.35277778,25.804288,53.304623)"><path
       d="M 0,0 -36.407,-6.926"
       style="fill:none;stroke:#595757;stroke-width:6.6;stroke-linecap:round;stroke-linejoin:round;stroke-miterlimit:10;stroke-dasharray:none;stroke-opacity:1"
       id="path286" /></g><g
     id="g288"
     transform="matrix(0.35277776,0,0,-0.35277778,9.4232978,49.121063)"><path
       d="m 0,0 9.175,1.619 13.778,-10.407 -2.699,-24.65 -9.318,-4.825 -12.262,9.096 z"
       style="fill:#fbd28b;fill-opacity:1;fill-rule:nonzero;stroke:none"
       id="path290" /></g><g
     id="g292"
     transform="matrix(0.35277776,0,0,-0.35277778,4.6273978,52.097623)"><path
       d="m 0,0 9.122,11.037 20.099,-14.04 -3.986,-30.784 -26.583,3.434 z"
       style="fill:#c22f60;fill-opacity:1;fill-rule:nonzero;stroke:none"
       id="path294" /></g><g
     id="g296"
     transform="matrix(0.35277776,0,0,-0.35277778,-58.152442,200.78467)"><g
       id="g298"
       clip-path="url(#clipPath302)"><g
         id="g304"
         transform="translate(180.4463,456.267)"><path
           d="m 0,0 c -0.454,0.053 -0.808,-0.021 -1.061,-0.223 -0.253,-0.2 -0.407,-0.534 -0.46,-1.001 -0.05,-0.428 0.025,-0.772 0.225,-1.032 0.199,-0.26 0.527,-0.415 0.981,-0.468 0.454,-0.052 0.805,0.025 1.052,0.233 0.248,0.208 0.397,0.525 0.447,0.955 C 1.237,-1.069 1.167,-0.71 0.973,-0.458 0.779,-0.205 0.454,-0.053 0,0 M -3.108,3.619 C -3.588,3.674 -4.017,3.554 -4.396,3.259 -4.775,2.965 -4.993,2.571 -5.051,2.079 -5.104,1.612 -4.98,1.187 -4.681,0.801 -4.38,0.414 -3.99,0.193 -3.512,0.138 c 0.481,-0.056 0.909,0.07 1.29,0.378 0.381,0.307 0.599,0.694 0.653,1.161 0.056,0.492 -0.066,0.925 -0.368,1.298 -0.301,0.374 -0.692,0.588 -1.171,0.644 M -7.262,5 C -7.69,5.05 -8.035,4.972 -8.296,4.765 -8.557,4.559 -8.713,4.229 -8.766,3.774 c -0.05,-0.441 0.028,-0.789 0.235,-1.043 0.208,-0.253 0.525,-0.405 0.954,-0.455 0.466,-0.054 0.82,0.02 1.06,0.223 0.242,0.201 0.387,0.522 0.439,0.965 0.053,0.454 -0.016,0.809 -0.203,1.068 C -6.469,4.79 -6.796,4.946 -7.262,5 m 25.666,0.567 -3.789,-20.994 c -1.579,0.49 -3.068,1.071 -4.466,1.744 -1.398,0.673 -2.694,1.43 -3.887,2.272 -1.017,0.718 -2.086,1.607 -3.209,2.671 -1.123,1.062 -2.301,2.291 -3.532,3.686 -1.56,1.766 -3.095,3.129 -4.607,4.089 -1.512,0.961 -3,1.527 -4.463,1.695 -0.542,0.063 -1.055,0.011 -1.542,-0.157 -0.485,-0.167 -0.943,-0.449 -1.372,-0.847 -0.387,-0.351 -0.699,-0.763 -0.938,-1.233 -0.241,-0.472 -0.394,-0.99 -0.458,-1.557 -0.085,-0.732 -0.075,-1.411 0.033,-2.037 0.105,-0.626 0.301,-1.197 0.587,-1.716 0.328,-0.587 0.748,-1.048 1.259,-1.381 0.509,-0.335 1.113,-0.542 1.806,-0.622 0.353,-0.04 0.693,-0.033 1.019,0.025 0.326,0.059 0.63,0.148 0.913,0.268 0.363,0.161 0.637,0.369 0.819,0.622 0.183,0.253 0.293,0.543 0.331,0.871 0.079,0.691 -0.021,1.228 -0.303,1.612 -0.281,0.384 -0.744,0.612 -1.386,0.688 -0.164,0.018 -0.34,0.015 -0.529,-0.007 -0.187,-0.023 -0.386,-0.061 -0.596,-0.113 0.287,0.723 0.677,1.243 1.166,1.559 0.491,0.316 1.083,0.434 1.776,0.353 0.529,-0.062 0.989,-0.236 1.377,-0.523 0.39,-0.287 0.706,-0.693 0.952,-1.22 0.206,-0.431 0.344,-0.9 0.412,-1.405 0.07,-0.506 0.073,-1.035 0.008,-1.59 -0.166,-1.439 -0.756,-2.555 -1.769,-3.347 -1.014,-0.792 -2.235,-1.106 -3.662,-0.941 -1.096,0.127 -2.057,0.485 -2.882,1.072 -0.826,0.587 -1.504,1.399 -2.035,2.431 -0.469,0.912 -0.778,1.888 -0.925,2.928 -0.149,1.039 -0.155,2.14 -0.02,3.301 0.172,1.487 0.507,2.789 1.007,3.907 0.499,1.117 1.157,2.057 1.973,2.818 0.886,0.817 1.913,1.388 3.08,1.713 1.168,0.324 2.469,0.404 3.905,0.237 1.061,-0.122 2.104,-0.524 3.131,-1.205 1.027,-0.681 2.045,-1.635 3.054,-2.864 0.834,-1.196 1.66,-2.393 2.481,-3.594 0.819,-1.201 1.652,-2.399 2.498,-3.596 1.012,-1.42 1.999,-2.592 2.96,-3.515 0.961,-0.923 1.898,-1.59 2.808,-2.002 L 10.325,5.15 Z"
           style="fill:#302c6a;fill-opacity:1;fill-rule:nonzero;stroke:none"
           id="path306" /></g><g
         id="g308"
         transform="translate(192.127,484.7689)"><path
           d="m 0,0 -1.063,-0.307 c 0.999,-1.339 2.152,-2.661 3.459,-3.964 1.307,-1.303 2.771,-2.578 4.396,-3.822 l 1.328,1.39 C 6.594,-5.799 5.155,-4.784 3.804,-3.661 2.453,-2.538 1.186,-1.318 0,0 m -6.929,-5.399 c 0.602,-0.238 1.035,-0.663 1.299,-1.272 0.265,-0.609 0.276,-1.222 0.032,-1.835 -0.238,-0.602 -0.662,-1.035 -1.271,-1.3 -0.61,-0.263 -1.216,-0.276 -1.818,-0.038 -0.613,0.243 -1.052,0.669 -1.316,1.279 -0.264,0.609 -0.277,1.215 -0.039,1.817 0.242,0.614 0.669,1.053 1.278,1.317 0.61,0.264 1.222,0.275 1.835,0.032 m -6.037,17.738 26.567,-19.501 -5.646,-6.531 -20.188,21.052 -4.054,-17.545 -6.72,4.185 z"
           style="fill:#302c6a;fill-opacity:1;fill-rule:nonzero;stroke:none"
           id="path310" /></g><g
         id="g312"
         transform="translate(203.4004,517.4418)"><path
           d="m 0,0 c -1.31,1.021 -2.793,1.437 -4.449,1.249 -1.657,-0.187 -2.991,-0.931 -4.004,-2.23 -1.025,-1.314 -1.42,-2.79 -1.187,-4.431 0.232,-1.64 1.003,-2.97 2.313,-3.991 1.304,-1.016 2.785,-1.437 4.444,-1.262 1.659,0.174 2.996,0.912 4.013,2.217 1.005,1.29 1.391,2.767 1.159,4.434 C 2.057,-2.346 1.294,-1.008 0,0 m 20.754,-8.809 -3.424,-7.569 -1.658,1.559 1.411,2.739 -1.187,0.925 -1.377,-2.574 -1.3,1.183 1.415,2.374 -1.302,0.869 -1.349,-2.04 -1.197,1.128 1.174,1.909 -1.231,0.959 -1.243,-1.686 -4.612,4.366 C 4.845,-5.529 4.686,-6.375 4.395,-7.202 4.104,-8.03 3.681,-8.831 3.125,-9.605 l 2.152,-2.04 -1.395,-1.327 -2.031,1.825 C 1.23,-11.759 0.55,-12.27 -0.19,-12.683 c -0.742,-0.413 -1.554,-0.732 -2.44,-0.959 l 0.576,-3.323 -1.851,-0.391 -0.312,3.477 c -0.62,-0.031 -1.211,-0.014 -1.771,0.053 -0.561,0.066 -1.099,0.18 -1.618,0.343 l -0.705,-2.299 -1.824,0.697 0.812,2.313 c -0.254,0.15 -0.479,0.292 -0.671,0.425 -0.194,0.135 -0.365,0.262 -0.516,0.379 -0.45,0.35 -0.856,0.732 -1.219,1.143 -0.363,0.411 -0.675,0.841 -0.938,1.287 l -2.681,-1.243 -0.923,1.757 2.75,1.239 c -0.268,0.789 -0.433,1.594 -0.494,2.414 -0.059,0.82 -0.015,1.656 0.133,2.507 l -2.465,0.616 0.409,1.639 2.49,-0.708 c 0.153,0.444 0.351,0.894 0.594,1.349 0.242,0.455 0.531,0.9 0.867,1.33 0.258,0.33 0.526,0.639 0.806,0.927 0.282,0.287 0.578,0.55 0.893,0.788 l -1.34,2.152 1.565,1.048 1.177,-2.267 c 0.559,0.303 1.124,0.545 1.699,0.723 0.575,0.18 1.165,0.307 1.77,0.382 l -2.347,2.287 1.565,2.595 z"
           style="fill:#302c6a;fill-opacity:1;fill-rule:nonzero;stroke:none"
           id="path314" /></g><g
         id="g316"
         transform="translate(244.3672,540.5717)"><path
           d="m 0,0 -0.396,0.629 -0.672,-0.875 c 0.874,-1.579 1.611,-3.197 2.211,-4.852 0.599,-1.655 1.064,-3.34 1.393,-5.052 L 4.31,-9.394 C 3.688,-7.52 3.014,-5.802 2.288,-4.242 1.562,-2.681 0.799,-1.268 0,0 m -10.09,-10.938 -12.115,6.367 1.879,-4.803 10.351,-3.855 z m 21.206,0.87 -7.439,-5.948 -10.705,18.419 0.485,-19.433 -12.694,4.177 c 0.73,-2.015 1.307,-3.861 1.733,-5.537 0.425,-1.674 0.707,-3.181 0.845,-4.519 0.186,-1.774 0.148,-3.498 -0.117,-5.172 -0.266,-1.676 -0.747,-3.304 -1.448,-4.885 l -1.509,0.95 c 0.805,2.083 1.089,4.475 0.851,7.175 -0.237,2.701 -0.985,5.717 -2.244,9.05 l -7.33,19.391 18.282,-10.405 -2.079,19.893 3.69,2.145 z"
           style="fill:#302c6a;fill-opacity:1;fill-rule:nonzero;stroke:none"
           id="path318" /></g><g
         id="g320"
         transform="translate(277.0176,551.8959)"><path
           d="M 0,0 -6.041,11.835 -7.937,-3.586 Z m 2.979,-5.246 -1.736,3.03 -9.536,-4.511 -0.291,-1.632 z m -14.211,-0.783 -0.845,0.722 c -0.594,-1.673 -1.072,-3.409 -1.436,-5.205 -0.362,-1.796 -0.607,-3.658 -0.734,-5.588 l 1.864,-0.38 c -0.096,1.754 -0.045,3.503 0.154,5.247 0.197,1.743 0.53,3.477 0.997,5.204 m 22.739,-7.198 -3.148,-1.442 -3.614,6.361 -13.415,-2.516 -1.503,-9.766 -8.197,3.501 8.241,31.652 5.099,1.498 z"
           style="fill:#302c6a;fill-opacity:1;fill-rule:nonzero;stroke:none"
           id="path322" /></g><g
         id="g324"
         transform="translate(316.1943,557.3314)"><path
           d="m 0,0 c 0.275,2.28 -0.201,4.074 -1.432,5.381 -1.23,1.305 -3.213,2.123 -5.947,2.453 -0.253,0.03 -0.512,0.052 -0.779,0.065 -0.266,0.013 -0.546,0.031 -0.838,0.053 l -1.199,-6.128 c 0.591,1.092 1.33,1.883 2.214,2.371 0.882,0.488 1.918,0.66 3.102,0.518 1.034,-0.125 1.873,-0.556 2.52,-1.292 0.646,-0.737 0.908,-1.615 0.785,-2.637 -0.087,-0.718 -0.395,-1.304 -0.922,-1.759 -0.527,-0.454 -1.145,-0.638 -1.852,-0.553 -0.465,0.056 -0.844,0.201 -1.135,0.435 -0.292,0.233 -0.496,0.568 -0.609,1.003 l 0.411,-0.088 c 0.487,-0.109 0.865,-0.075 1.135,0.103 0.272,0.179 0.433,0.488 0.486,0.929 C -4.015,1.22 -4.09,1.51 -4.28,1.726 -4.473,1.94 -4.775,2.072 -5.191,2.122 -5.607,2.173 -5.98,2.125 -6.312,1.979 -6.643,1.834 -6.949,1.599 -7.23,1.275 -7.47,0.997 -7.657,0.678 -7.798,0.317 c -0.139,-0.36 -0.235,-0.76 -0.289,-1.202 -0.122,-1.021 0.105,-1.891 0.683,-2.614 0.578,-0.722 1.377,-1.145 2.398,-1.268 0.705,-0.085 1.353,-0.023 1.942,0.188 0.586,0.21 1.109,0.562 1.564,1.058 0.412,0.449 0.744,0.968 0.994,1.558 C -0.255,-1.373 -0.087,-0.719 0,0 M 3.873,-0.017 C 3.584,-2.414 2.57,-4.353 0.833,-5.833 c -1.737,-1.48 -3.795,-2.076 -6.175,-1.789 -1.551,0.186 -2.812,0.697 -3.781,1.53 -0.969,0.833 -1.646,1.989 -2.031,3.467 l -3.493,-18.452 -3.885,-0.568 1.63,16.683 -3.09,-0.011 0.055,3.313 3.339,0.018 0.311,3.376 -3.225,0.141 0.219,3.407 3.314,-0.208 0.321,3.298 -3.45,0.015 0.452,3.435 c 3.314,-0.208 5.958,-0.38 7.931,-0.515 1.975,-0.136 3.284,-0.243 3.927,-0.321 1.764,-0.213 3.314,-0.579 4.65,-1.097 C -0.812,9.37 0.318,8.696 1.24,7.87 2.313,6.91 3.069,5.771 3.511,4.453 3.953,3.136 4.073,1.646 3.873,-0.017"
           style="fill:#302c6a;fill-opacity:1;fill-rule:nonzero;stroke:none"
           id="path326" /></g><g
         id="g328"
         transform="translate(345.0917,354.6895)"><path
           d="m 0,0 c -1.451,-0.869 -2.893,-1.602 -4.322,-2.2 l -0.099,0.971 c 1.443,0.762 2.809,1.613 4.099,2.554 1.29,0.942 2.494,1.979 3.61,3.113 L 4.354,3.032 C 2.902,1.879 1.45,0.87 0,0 m -114.133,4.431 c -2.68,1.551 -5.368,3.395 -8.059,5.53 -2.69,2.138 -5.367,4.575 -8.029,7.32 l 2.2,2.819 c 2.019,-2.642 4.218,-5.093 6.592,-7.356 2.374,-2.261 4.903,-4.343 7.592,-6.248 z M 45.626,76.782 c 0.701,0 1.269,-0.568 1.269,-1.269 0,-0.7 -0.568,-1.268 -1.269,-1.268 -0.7,0 -1.268,0.568 -1.268,1.268 0,0.701 0.568,1.269 1.268,1.269 m 1.269,6.06 c 1.016,0 1.839,-0.824 1.839,-1.84 0,-1.016 -0.823,-1.839 -1.839,-1.839 -1.016,0 -1.84,0.823 -1.84,1.839 0,1.016 0.824,1.84 1.84,1.84 m 0,4.351 c 0.7,0 1.268,-0.568 1.268,-1.268 0,-0.701 -0.568,-1.269 -1.268,-1.269 -0.701,0 -1.269,0.568 -1.269,1.269 0,0.7 0.568,1.268 1.269,1.268 m 3.311,-0.39 c 0,25.472 -8.87,56.671 -25.869,75.611 l -5.7,-11.416 c 2.37,-2.64 4.56,-5.409 6.606,-8.266 l 2.946,2.98 1.984,-2.536 -3.69,-2.193 c 0.649,-0.95 1.269,-1.916 1.883,-2.887 l 3.448,2.735 1.665,-2.756 -4.001,-1.765 c 0.637,-1.06 1.263,-2.125 1.858,-3.207 l 3.626,2.316 1.375,-2.912 -4.013,-1.3 c 7.088,-13.601 10.882,-28.793 10.882,-44.404 0,-51.791 -38.696,-96.01 -89.91,-98.026 0.176,1.968 -0.169,3.776 -1.054,5.418 -1.357,2.513 -3.957,4.644 -7.795,6.394 -1.211,0.552 -2.366,0.957 -3.468,1.214 -1.102,0.259 -2.14,0.365 -3.114,0.32 -1.073,-0.05 -1.958,-0.301 -2.652,-0.751 -0.698,-0.451 -1.19,-1.099 -1.481,-1.943 -0.422,-1.221 -0.226,-2.47 0.585,-3.748 0.812,-1.278 2.076,-2.307 3.795,-3.092 0.743,-0.338 1.446,-0.594 2.111,-0.766 0.666,-0.171 1.294,-0.254 1.887,-0.244 0.691,0.015 1.257,0.137 1.692,0.366 0.435,0.229 0.739,0.592 0.91,1.09 0.172,0.498 0.143,0.945 -0.086,1.348 -0.232,0.401 -0.653,0.743 -1.268,1.023 -0.744,0.338 -1.34,0.441 -1.793,0.306 -0.45,-0.134 -0.735,-0.514 -0.854,-1.142 l -0.108,-0.526 c -0.632,0.515 -1.048,1.037 -1.245,1.564 -0.201,0.527 -0.204,1.069 -0.012,1.626 0.292,0.846 0.964,1.351 2.016,1.516 1.053,0.165 2.183,-0.027 3.391,-0.578 1.72,-0.784 2.975,-1.858 3.769,-3.224 0.794,-1.365 0.978,-2.665 0.551,-3.902 -0.344,-0.996 -0.907,-1.758 -1.662,-2.312 -28.735,0.744 -57.708,15.74 -75.614,38.232 l -11.285,-4.99 c 19.706,-24.754 54.943,-38.319 86.548,-38.319 1.498,0 2.987,0.039 4.47,0.102 l 0.259,-0.102 c 0.017,0.04 0.034,0.074 0.051,0.114 31.125,1.427 58.693,16.713 76.666,39.817 l 3.479,-4.004 3.109,3.184 -4.662,3.38 c 0.78,1.069 1.543,2.15 2.282,3.249 l 4.495,-3.964 2.66,3.567 -5.49,2.962 c 0.718,1.138 1.418,2.288 2.092,3.455 l 5.331,-3.091 1.909,4.019 -5.746,1.762 c 7.806,14.512 12.241,31.095 12.241,48.696"
           style="fill:#302c6a;fill-opacity:1;fill-rule:nonzero;stroke:none"
           id="path330" /></g></g></g></svg>
