<?xml version="1.0" encoding="utf-8"?>

<!DOCTYPE svg PUBLIC "-//W3C//DTD SVG 1.1//EN" "http://www.w3.org/Graphics/SVG/1.1/DTD/svg11.dtd">
<!-- Uploaded to: SVG Repo, www.svgrepo.com, Generator: SVG Repo Mixer Tools -->
<svg version="1.1" id="_x32_" xmlns="http://www.w3.org/2000/svg" xmlns:xlink="http://www.w3.org/1999/xlink" 
	 width="128px" height="128px" viewBox="0 0 512 512"  xml:space="preserve">
<g>
	<path class="my-color" d="M256,0C159.969,0,82.109,77.859,82.109,173.906c0,100.719,80.016,163.688,123.297,238.719
		C246.813,484.406,246.781,512,256,512s9.188-27.594,50.594-99.375c43.297-75.031,123.297-138,123.297-238.719
		C429.891,77.859,352.031,0,256,0z M256,240.406c-36.734,0-66.516-29.781-66.516-66.5c0-36.75,29.781-66.531,66.516-66.531
		s66.516,29.781,66.516,66.531C322.516,210.625,292.734,240.406,256,240.406z"
		fill="rgb(255,00,00)"
	/>
	<path
		d="m 61.117937,59.766893 c -3.38513,-0.644803 -6.372979,-2.220625 -8.786384,-4.63403 -4.333884,-4.333884 -5.937757,-10.754982 -4.128515,-16.528487 1.345177,-4.292615 4.381208,-7.875445 8.369351,-9.876693 2.722456,-1.366127 5.197958,-1.886046 8.263045,-1.735449 2.550702,0.125323 4.336404,0.59957 6.657527,1.768107 2.253317,1.134401 4.133906,2.705494 5.655403,4.724673 5.01447,6.654703 4.390387,15.777545 -1.480974,21.648906 -2.133576,2.133576 -4.716372,3.600804 -7.756338,4.4062 -1.56501,0.414626 -5.174353,0.535116 -6.793115,0.226773 z"
		fill="rgb(255,255,255)"
		transform="scale(4)" />
</g>
</svg>
